/* XPM */
static char *north_texture[] = {
/* columns rows colors chars-per-pixel */
"64 64 15 1 ",
"  c black",
". c #00261F",
"X c #004236",
"o c #005849",
"O c #006B59",
"+ c #007D68",
"@ c #009C83",
"# c #00AA8F",
"$ c #00B89B",
"% c #00C5A6",
"& c #00D1B1",
"* c #00DDBB",
"= c #00E9C5",
"- c #00F4CF",
"; c #00FFD8",
/* pixels */
";;;;;;;;;;;;;;;;;;;;;;;;;;;;;;;;;;;;;;;;;;;;;;;;;;;;;;;;;;;;;;;;",
";;;;;;;;;;;;;;;;;;;;;;;;;;;;;;;;;;;;;;;;;;;;;;;;;;;;;;;;;;;;;;;;",
";;;;;;;;;;;;;;;;;;;;;;;;;;;;;;;;;;;;;;;;;;;;;;;;;;;;;;;;;;;;;;;;",
";;;;;;;;;;;;;;;;;;;;;;;;;;;;;;;;;;;;;;;;;;;;;;;;;;;;;;;;;;;;;;;;",
";;;;;;;;;;;;;;;;;;;;;;;;;;;;;;;;;;;;;;;;;;;;;;;;;;;;;;;;;;;;;;;;",
";;;;;;;;;;;;;;;;;;;;;;;;;;;;;;;;;;;;;;;;;;;;;;;;;;;;;;;;;;;;;;;;",
";;;;;;;;;;;;;;;;;;;;;;;;;;;;;;;;;;;;;;;;;;;;;;;;;;;;;;;;;;;;;;;;",
";;;;;;;;;;;;;;;;;;;;;;;;;;;;;;;;;;;;;;;;;;;;;;;;;;;;;;;;;;;;;;;;",
";;;;;;;;;;;;;;;;;;;;;;;;;;;;;;;;;;;;;;;;;;;;;;;;;;;;;;;;;;;;;;;;",
";;;;;;;;;;;;;;;;;;;;;;;;;;;;;;;;;;;;;;;;;;;;;;;;;;;;;;;;;;;;;;;;",
";;;;;;;;;;;;;;;;;;;;;;;;;;;;;;;;;;;;;;;;;;;;;;;;;;;;;;;;;;;;;;;;",
";;;;;;;;;;;;;;;;#      .-;;;;;;;;;;;;;;;&      O;;;;;;;;;;;;;;;;",
";;;;;;;;;;;;;;;;#       +;;;;;;;;;;;;;;;&      O;;;;;;;;;;;;;;;;",
";;;;;;;;;;;;;;;;#        &;;;;;;;;;;;;;;&      O;;;;;;;;;;;;;;;;",
";;;;;;;;;;;;;;;;#        X-;;;;;;;;;;;;;&      O;;;;;;;;;;;;;;;;",
";;;;;;;;;;;;;;;;#         @;;;;;;;;;;;;;&      O;;;;;;;;;;;;;;;;",
";;;;;;;;;;;;;;;;#          &;;;;;;;;;;;;&      O;;;;;;;;;;;;;;;;",
";;;;;;;;;;;;;;;;#          o;;;;;;;;;;;;&      O;;;;;;;;;;;;;;;;",
";;;;;;;;;;;;;;;;#           #;;;;;;;;;;;&      O;;;;;;;;;;;;;;;;",
";;;;;;;;;;;;;;;;#            *;;;;;;;;;;&      O;;;;;;;;;;;;;;;;",
";;;;;;;;;;;;;;;;#            O;;;;;;;;;;&      O;;;;;;;;;;;;;;;;",
";;;;;;;;;;;;;;;;#             #;;;;;;;;;&      O;;;;;;;;;;;;;;;;",
";;;;;;;;;;;;;;;;#             .=;;;;;;;;&      O;;;;;;;;;;;;;;;;",
";;;;;;;;;;;;;;;;#      X       O;;;;;;;;&      O;;;;;;;;;;;;;;;;",
";;;;;;;;;;;;;;;;#      #O       %;;;;;;;&      O;;;;;;;;;;;;;;;;",
";;;;;;;;;;;;;;;;#      #*       .-;;;;;;&      O;;;;;;;;;;;;;;;;",
";;;;;;;;;;;;;;;;#      #;#       +;;;;;;&      O;;;;;;;;;;;;;;;;",
";;;;;;;;;;;;;;;;#      #;;o       &;;;;;&      O;;;;;;;;;;;;;;;;",
";;;;;;;;;;;;;;;;#      #;;&       X-;;;;&      O;;;;;;;;;;;;;;;;",
";;;;;;;;;;;;;;;;#      #;;;@       @;;;;&      O;;;;;;;;;;;;;;;;",
";;;;;;;;;;;;;;;;#      #;;;-X       *;;;&      O;;;;;;;;;;;;;;;;",
";;;;;;;;;;;;;;;;#      #;;;;%       o;;;&      O;;;;;;;;;;;;;;;;",
";;;;;;;;;;;;;;;;#      #;;;;;+       #;;&      O;;;;;;;;;;;;;;;;",
";;;;;;;;;;;;;;;;#      #;;;;;-.       =;&      O;;;;;;;;;;;;;;;;",
";;;;;;;;;;;;;;;;#      #;;;;;;$       O;&      O;;;;;;;;;;;;;;;;",
";;;;;;;;;;;;;;;;#      #;;;;;;;O       #&      O;;;;;;;;;;;;;;;;",
";;;;;;;;;;;;;;;;#      #;;;;;;;=.      .$      O;;;;;;;;;;;;;;;;",
";;;;;;;;;;;;;;;;#      #;;;;;;;;#       X      O;;;;;;;;;;;;;;;;",
";;;;;;;;;;;;;;;;#      #;;;;;;;;;o             O;;;;;;;;;;;;;;;;",
";;;;;;;;;;;;;;;;#      #;;;;;;;;;*             O;;;;;;;;;;;;;;;;",
";;;;;;;;;;;;;;;;#      #;;;;;;;;;;#            O;;;;;;;;;;;;;;;;",
";;;;;;;;;;;;;;;;#      #;;;;;;;;;;-X           O;;;;;;;;;;;;;;;;",
";;;;;;;;;;;;;;;;#      #;;;;;;;;;;;&           O;;;;;;;;;;;;;;;;",
";;;;;;;;;;;;;;;;#      #;;;;;;;;;;;;@          O;;;;;;;;;;;;;;;;",
";;;;;;;;;;;;;;;;#      #;;;;;;;;;;;;-.         O;;;;;;;;;;;;;;;;",
";;;;;;;;;;;;;;;;#      #;;;;;;;;;;;;;%         O;;;;;;;;;;;;;;;;",
";;;;;;;;;;;;;;;;#      #;;;;;;;;;;;;;;+        O;;;;;;;;;;;;;;;;",
";;;;;;;;;;;;;;;;#      #;;;;;;;;;;;;;;-.       O;;;;;;;;;;;;;;;;",
";;;;;;;;;;;;;;;;#      #;;;;;;;;;;;;;;;#       O;;;;;;;;;;;;;;;;",
";;;;;;;;;;;;;;;;#      #;;;;;;;;;;;;;;;;O      O;;;;;;;;;;;;;;;;",
";;;;;;;;;;;;;;;;=&&&&&&=;;;;;;;;;;;;;;;;-&&&&&&*;;;;;;;;;;;;;;;;",
";;;;;;;;;;;;;;;;;;;;;;;;;;;;;;;;;;;;;;;;;;;;;;;;;;;;;;;;;;;;;;;;",
";;;;;;;;;;;;;;;;;;;;;;;;;;;;;;;;;;;;;;;;;;;;;;;;;;;;;;;;;;;;;;;;",
";;;;;;;;;;;;;;;;;;;;;;;;;;;;;;;;;;;;;;;;;;;;;;;;;;;;;;;;;;;;;;;;",
";;;;;;;;;;;;;;;;;;;;;;;;;;;;;;;;;;;;;;;;;;;;;;;;;;;;;;;;;;;;;;;;",
";;;;;;;;;;;;;;;;;;;;;;;;;;;;;;;;;;;;;;;;;;;;;;;;;;;;;;;;;;;;;;;;",
";;;;;;;;;;;;;;;;;;;;;;;;;;;;;;;;;;;;;;;;;;;;;;;;;;;;;;;;;;;;;;;;",
";;;;;;;;;;;;;;;;;;;;;;;;;;;;;;;;;;;;;;;;;;;;;;;;;;;;;;;;;;;;;;;;",
";;;;;;;;;;;;;;;;;;;;;;;;;;;;;;;;;;;;;;;;;;;;;;;;;;;;;;;;;;;;;;;;",
";;;;;;;;;;;;;;;;;;;;;;;;;;;;;;;;;;;;;;;;;;;;;;;;;;;;;;;;;;;;;;;;",
";;;;;;;;;;;;;;;;;;;;;;;;;;;;;;;;;;;;;;;;;;;;;;;;;;;;;;;;;;;;;;;;",
";;;;;;;;;;;;;;;;;;;;;;;;;;;;;;;;;;;;;;;;;;;;;;;;;;;;;;;;;;;;;;;;",
";;;;;;;;;;;;;;;;;;;;;;;;;;;;;;;;;;;;;;;;;;;;;;;;;;;;;;;;;;;;;;;;",
";;;;;;;;;;;;;;;;;;;;;;;;;;;;;;;;;;;;;;;;;;;;;;;;;;;;;;;;;;;;;;;;"
};
