/* XPM */
static char *south_texture[] = {
/* columns rows colors chars-per-pixel */
"64 64 16 1 ",
"  c black",
". c #260026",
"X c #420042",
"o c #580058",
"O c #6B006B",
"+ c #7D007D",
"@ c #8D008D",
"# c #9C009C",
"$ c #AA00AA",
"% c #B800B8",
"& c #C500C5",
"* c #D100D1",
"= c #DD00DD",
"- c #E900E9",
"; c #F400F4",
": c magenta",
/* pixels */
"::::::::::::::::::::::::::::::::::::::::::::::::::::::::::::::::",
"::::::::::::::::::::::::::::::::::::::::::::::::::::::::::::::::",
"::::::::::::::::::::::::::::::::::::::::::::::::::::::::::::::::",
"::::::::::::::::::::::::::::::::::::::::::::::::::::::::::::::::",
"::::::::::::::::::::::::::::::::::::::::::::::::::::::::::::::::",
"::::::::::::::::::::::::::::::::::::::::::::::::::::::::::::::::",
"::::::::::::::::::::::::::::::::::::::::::::::::::::::::::::::::",
"::::::::::::::::::::::::::::::::::::::::::::::::::::::::::::::::",
"::::::::::::::::::::::::::::::::::::::::::::::::::::::::::::::::",
"::::::::::::::::::::::::::::::-****:::::::::::::::::::::::::::::",
":::::::::::::::::::::::::-$+.        o@&::::::::::::::::::::::::",
":::::::::::::::::::::::=O               X&::::::::::::::::::::::",
"::::::::::::::::::::::%                   %:::::::::::::::::::::",
":::::::::::::::::::::%                     %::::::::::::::::::::",
"::::::::::::::::::::*        @&-:=&#.      .-:::::::::::::::::::",
":::::::::::::::::::;X      .=:::::::=       @:::::::::::::::::::",
":::::::::::::::::::$       =:::::::::@      X:::::::::::::::::::",
":::::::::::::::::::X      @::::::::::$       :::::::::::::::::::",
"::::::::::::::::::-       &:::::::::::::::::::::::::::::::::::::",
"::::::::::::::::::*       *:::::::::::::::::::::::::::::::::::::",
"::::::::::::::::::*       *:::::::::::::::::::::::::::::::::::::",
"::::::::::::::::::*       %:::::::::::::::::::::::::::::::::::::",
"::::::::::::::::::-       O:::::::::::::::::::::::::::::::::::::",
":::::::::::::::::::X       *::::::::::::::::::::::::::::::::::::",
":::::::::::::::::::$       .=:::::::::::::::::::::::::::::::::::",
":::::::::::::::::::;.       .$::::::::::::::::::::::::::::::::::",
"::::::::::::::::::::*         X%::::::::::::::::::::::::::::::::",
":::::::::::::::::::::%          X$;:::::::::::::::::::::::::::::",
"::::::::::::::::::::::&.          .@-:::::::::::::::::::::::::::",
":::::::::::::::::::::::=O            @-:::::::::::::::::::::::::",
":::::::::::::::::::::::::%X            @-:::::::::::::::::::::::",
":::::::::::::::::::::::::::%O           .$::::::::::::::::::::::",
":::::::::::::::::::::::::::::=@.          O;::::::::::::::::::::",
":::::::::::::::::::::::::::::::;%X         o;:::::::::::::::::::",
"::::::::::::::::::::::::::::::::::$.        #:::::::::::::::::::",
":::::::::::::::::::::::::::::::::::;+        -::::::::::::::::::",
":::::::::::::::::::::::::::::::::::::@       @::::::::::::::::::",
"::::::::::::::::::::::::::::::::::::::X      .::::::::::::::::::",
"::::::::::::::::::::::::::::::::::::::$       *:::::::::::::::::",
"::::::::::::::::::::::::::::::::::::::*       *:::::::::::::::::",
"::::::::::::::::::::::::::::::::::::::*       *:::::::::::::::::",
":::::::::::::::::$       :::::::::::::%       =:::::::::::::::::",
":::::::::::::::::$       :::::::::::::#      .::::::::::::::::::",
":::::::::::::::::*       =::::::::::::X      @::::::::::::::::::",
"::::::::::::::::::.      $:::::::::::$       *::::::::::::::::::",
"::::::::::::::::::$      .*:::::::::$       O:::::::::::::::::::",
"::::::::::::::::::;.       o$=:::;%X       .-:::::::::::::::::::",
":::::::::::::::::::*                      .=::::::::::::::::::::",
"::::::::::::::::::::*.                   X=:::::::::::::::::::::",
":::::::::::::::::::::;@                 #;::::::::::::::::::::::",
":::::::::::::::::::::::;%+.          O$-::::::::::::::::::::::::",
":::::::::::::::::::::::::::;***$$**=::::::::::::::::::::::::::::",
"::::::::::::::::::::::::::::::::::::::::::::::::::::::::::::::::",
"::::::::::::::::::::::::::::::::::::::::::::::::::::::::::::::::",
"::::::::::::::::::::::::::::::::::::::::::::::::::::::::::::::::",
"::::::::::::::::::::::::::::::::::::::::::::::::::::::::::::::::",
"::::::::::::::::::::::::::::::::::::::::::::::::::::::::::::::::",
"::::::::::::::::::::::::::::::::::::::::::::::::::::::::::::::::",
"::::::::::::::::::::::::::::::::::::::::::::::::::::::::::::::::",
"::::::::::::::::::::::::::::::::::::::::::::::::::::::::::::::::",
"::::::::::::::::::::::::::::::::::::::::::::::::::::::::::::::::",
"::::::::::::::::::::::::::::::::::::::::::::::::::::::::::::::::",
"::::::::::::::::::::::::::::::::::::::::::::::::::::::::::::::::",
"::::::::::::::::::::::::::::::::::::::::::::::::::::::::::::::::"
};
