/* XPM */
static char *west_texture[] = {
/* columns rows colors chars-per-pixel */
"64 64 16 1 ",
"  c black",
". c #011426",
"X c #022642",
"o c #043458",
"O c #05416B",
"+ c #074C7D",
"@ c #09578D",
"# c #0B609C",
"$ c #0D6AAA",
"% c #0F73B8",
"& c #117BC5",
"* c #1383D1",
"= c #158BDD",
"- c #1792E9",
"; c #189AF4",
": c #1AA1FF",
/* pixels */
"::::::::::::::::::::::::::::::::::::::::::::::::::::::::::::::::",
"::::::::::::::::::::::::::::::::::::::::::::::::::::::::::::::::",
"::::::::::::::::::::::::::::::::::::::::::::::::::::::::::::::::",
"::::::::::::::::::::::::::::::::::::::::::::::::::::::::::::::::",
"::::::::::::::::::::::::::::::::::::::::::::::::::::::::::::::::",
"::::::::::::::::::::::::::::::::::::::::::::::::::::::::::::::::",
"::::::::::::::::::::::::::::::::::::::::::::::::::::::::::::::::",
"::::::::::::::::::::::::::::::::::::::::::::::::::::::::::::::::",
"::::::::::::::::::::::::::::::::::::::::::::::::::::::::::::::::",
"::::::::::::::::::::::::::::::::::::::::::::::::::::::::::::::::",
"::::::::::::::::::::::::::::::::::::::::::::::::::::::::::::::::",
"::::::::=       ;:::::::::::*       *:::::::::::;      +::::::::",
":::::::::.      *:::::::::::$       $:::::::::::&      $::::::::",
":::::::::+      $:::::::::::o       O:::::::::::#      *::::::::",
":::::::::$      O::::::::::;         :::::::::::O      :::::::::",
":::::::::*      .::::::::::&         *::::::::::      O:::::::::",
"::::::::::       =:::::::::#         $:::::::::*      $:::::::::",
"::::::::::o      $:::::::::o         O:::::::::$      &:::::::::",
"::::::::::#      @::::::::;           ;::::::::+      ;:::::::::",
"::::::::::&      X::::::::%           &::::::::.     o::::::::::",
"::::::::::-       ;:::::::@           #:::::::=      @::::::::::",
":::::::::::X      &:::::::X           o:::::::$      %::::::::::",
":::::::::::+      #::::::-             ;::::::@      -::::::::::",
":::::::::::$      O::::::%      +      &::::::X     .:::::::::::",
":::::::::::=       ::::::@     O&      #:::::-      +:::::::::::",
"::::::::::::       *:::::X     $;      o:::::&      $:::::::::::",
"::::::::::::O      $::::=      *:o      ;::::#      =:::::::::::",
"::::::::::::$      +::::$      ::#      &::::o      ::::::::::::",
"::::::::::::&      X::::+     +::&      #::::      O::::::::::::",
"::::::::::::;       -:::.     $::;      o:::*      $::::::::::::",
":::::::::::::o      %::=      =:::o      ;::$      *::::::::::::",
":::::::::::::@      #::$     .::::$      &::O      ;::::::::::::",
":::::::::::::%      o::O     +::::*      #::.     o:::::::::::::",
":::::::::::::=       ::      %:::::      o:=      #:::::::::::::",
"::::::::::::::.      **      -:::::O      ;$      &:::::::::::::",
"::::::::::::::+      $$     X::::::$      &+      -:::::::::::::",
"::::::::::::::$      OO     @::::::*      #X     X::::::::::::::",
"::::::::::::::*      .      %:::::::      X      @::::::::::::::",
":::::::::::::::             -:::::::+            $::::::::::::::",
":::::::::::::::o           o::::::::$            =::::::::::::::",
":::::::::::::::#           #::::::::=           .:::::::::::::::",
":::::::::::::::&           &:::::::::.          +:::::::::::::::",
":::::::::::::::-           ;:::::::::+          $:::::::::::::::",
"::::::::::::::::X         o::::::::::$          *:::::::::::::::",
"::::::::::::::::+         $::::::::::=          ::::::::::::::::",
"::::::::::::::::$         *:::::::::::X        O::::::::::::::::",
"::::::::::::::::*         ::::::::::::@        #::::::::::::::::",
":::::::::::::::::        O::::::::::::%        &::::::::::::::::",
":::::::::::::::::O       $::::::::::::-        ;::::::::::::::::",
":::::::::::::::::$       =:::::::::::::X      o:::::::::::::::::",
":::::::::::::::::-*******::::::::::::::=******=:::::::::::::::::",
"::::::::::::::::::::::::::::::::::::::::::::::::::::::::::::::::",
"::::::::::::::::::::::::::::::::::::::::::::::::::::::::::::::::",
"::::::::::::::::::::::::::::::::::::::::::::::::::::::::::::::::",
"::::::::::::::::::::::::::::::::::::::::::::::::::::::::::::::::",
"::::::::::::::::::::::::::::::::::::::::::::::::::::::::::::::::",
"::::::::::::::::::::::::::::::::::::::::::::::::::::::::::::::::",
"::::::::::::::::::::::::::::::::::::::::::::::::::::::::::::::::",
"::::::::::::::::::::::::::::::::::::::::::::::::::::::::::::::::",
"::::::::::::::::::::::::::::::::::::::::::::::::::::::::::::::::",
"::::::::::::::::::::::::::::::::::::::::::::::::::::::::::::::::",
"::::::::::::::::::::::::::::::::::::::::::::::::::::::::::::::::",
"::::::::::::::::::::::::::::::::::::::::::::::::::::::::::::::::",
"::::::::::::::::::::::::::::::::::::::::::::::::::::::::::::::::"
};
